<svg id="Layer_1" data-name="Layer 1" xmlns="http://www.w3.org/2000/svg" viewBox="0 0 30 20"><title>icon twitter</title><path d="M24.23,2.35a.54.54,0,0,0-.5-.13l-.82.29a5.69,5.69,0,0,0,1-1.77.43.43,0,0,0-.08-.49.46.46,0,0,0-.5-.08c-1.15.49-2.14.9-3,1.15,0,0,0,0-.08,0A8.62,8.62,0,0,0,16.9.13a5.43,5.43,0,0,0-5.26,5.51V5.8C7.36,5,5,3.75,2.46,1.07L2.05.66l-.25.49A5.57,5.57,0,0,0,3,7.9a3.3,3.3,0,0,1-1.68-.74.51.51,0,0,0-.58,0,.5.5,0,0,0-.2.54A8,8,0,0,0,4.11,12.1a3.33,3.33,0,0,1-2-.49.56.56,0,0,0-.58,0,.45.45,0,0,0-.16.53,5,5,0,0,0,4.49,3.5A10.11,10.11,0,0,1,.69,17a.57.57,0,0,0-.53.37A.55.55,0,0,0,.32,18c1.48,1.2,4.77,1.9,8.85,1.9,7.24,0,13.16-6.46,13.16-14.4V5.35a4,4,0,0,0,2-2.51A.55.55,0,0,0,24.23,2.35ZM21.76,4.69l-.25.09v.7C21.51,13,16,19.05,9.17,19.05a18.36,18.36,0,0,1-7.62-1.27,10,10,0,0,0,5.77-2.1l1-.74H7.11c-2.35,0-3.79-.66-4.61-2.22a6.66,6.66,0,0,0,2.39.2,8.19,8.19,0,0,1,1,0L6,12.06A7.4,7.4,0,0,1,1.68,8.31a6.21,6.21,0,0,0,2.55.46H5.5L4.48,8C3.61,7.41,1.06,5.23,2.3,2.1,4.93,4.69,7.44,5.89,12,6.71l.5.08V5.64A4.61,4.61,0,0,1,16.9,1a7.48,7.48,0,0,1,3,1.07,1,1,0,0,0,.75.08c.61-.2,1.35-.49,2.18-.82A6.62,6.62,0,0,1,21.26,3a.5.5,0,0,0-.12.57.41.41,0,0,0,.54.21l1.6-.54A2.87,2.87,0,0,1,21.76,4.69Z"/><path d="M9.17,20c-4.1,0-7.44-.72-8.93-1.92a.69.69,0,0,1,.45-1.21A10.26,10.26,0,0,0,5.5,15.75a5,5,0,0,1-4.23-3.53.58.58,0,0,1,.21-.67.7.7,0,0,1,.71-.05A2.83,2.83,0,0,0,3.66,12,8.06,8.06,0,0,1,.41,7.69.64.64,0,0,1,.68,7a.6.6,0,0,1,.7,0,3.08,3.08,0,0,0,1.26.64,5.62,5.62,0,0,1-1-6.6L2,.45,2.55,1c2.54,2.66,4.82,3.85,9,4.66h0A5.58,5.58,0,0,1,16.9,0a8.59,8.59,0,0,1,3.46,1.2h0A28.76,28.76,0,0,0,23.31.05a.56.56,0,0,1,.63.11.54.54,0,0,1,.11.63,5.61,5.61,0,0,1-.78,1.47l.42-.15a.64.64,0,0,1,.62.15.67.67,0,0,1,.16.61,4.24,4.24,0,0,1-2,2.56v.05C22.46,13.48,16.5,20,9.17,20ZM1.88,11.67a.38.38,0,0,0-.25.08.31.31,0,0,0-.12.39,4.83,4.83,0,0,0,4.38,3.42l.36,0-.31.19A10.42,10.42,0,0,1,.69,17.12a.47.47,0,0,0-.42.29.45.45,0,0,0,.14.49c1.44,1.16,4.72,1.85,8.76,1.85,7.19,0,13-6.4,13-14.27v-.2l.07,0a4,4,0,0,0,1.95-2.43.4.4,0,0,0-.09-.37.43.43,0,0,0-.38-.1l-1.24.44.3-.35a5.26,5.26,0,0,0,1-1.73.3.3,0,0,0-.4-.42,29.3,29.3,0,0,1-2.94,1.14l0,0a.14.14,0,0,1-.14,0h0l0,0A8.61,8.61,0,0,0,16.9.25a5.33,5.33,0,0,0-5.14,5.39V6l-.15,0C7.37,5.11,5,3.86,2.37,1.16L2.08.87l-.17.34A5.54,5.54,0,0,0,3.08,7.82l.27.27L3,8a3.37,3.37,0,0,1-1.74-.76.37.37,0,0,0-.43,0,.36.36,0,0,0-.15.4A7.92,7.92,0,0,0,4.17,12l.38.22H4.11a3.4,3.4,0,0,1-2.05-.51A.48.48,0,0,0,1.88,11.67Zm7.29,7.51A19,19,0,0,1,1.5,17.89l-.41-.2.46,0a9.66,9.66,0,0,0,5.69-2.07L8,15.06H7.11c-2.43,0-3.89-.7-4.72-2.28l-.14-.28.29.1a6.38,6.38,0,0,0,2.34.2,6.55,6.55,0,0,1,.89,0l.09-.61A7.61,7.61,0,0,1,1.57,8.37l-.15-.31.31.14a6.09,6.09,0,0,0,2.5.44h.89L4.4,8.13C3.56,7.52.9,5.3,2.18,2.06l.07-.18L2.38,2C5,4.58,7.5,5.77,12,6.59l.34.06v-1A4.75,4.75,0,0,1,16.9.83H17A7.77,7.77,0,0,1,19.9,1.9a.82.82,0,0,0,.67.08c.65-.21,1.43-.52,2.17-.82L23.08,1l-.19.31A6.57,6.57,0,0,1,21.34,3.1a.38.38,0,0,0-.08.44.27.27,0,0,0,.13.13.33.33,0,0,0,.24,0L23.54,3l-.15.27a3,3,0,0,1-1.59,1.5h0l-.17.05v.62C21.63,13,16,19.18,9.17,19.18ZM2,17.86a19.52,19.52,0,0,0,7.13,1.07c6.74,0,12.22-6,12.22-13.45V4.69l.33-.11A2.62,2.62,0,0,0,23,3.47l-1.3.44a.56.56,0,0,1-.42,0A.46.46,0,0,1,21,3.63a.61.61,0,0,1,.16-.72,6.33,6.33,0,0,0,1.28-1.37c-.63.25-1.27.49-1.82.68a1.14,1.14,0,0,1-.84-.09l0,0a6.63,6.63,0,0,0-2.87-1,4.51,4.51,0,0,0-4.33,4.57v1.3l-.64-.11c-4.46-.81-7-2-9.6-4.51-1,3,1.41,5,2.21,5.61l1.34,1H4.23a6.79,6.79,0,0,1-2.29-.34A7.28,7.28,0,0,0,6,11.94l.11,0L6,13h-.1a6.44,6.44,0,0,0-1,.05,7.35,7.35,0,0,1-2.14-.13c.81,1.31,2.16,1.9,4.35,1.9H8.73l-1.34,1A10,10,0,0,1,2,17.86Z"/></svg>